<svg xmlns="http://www.w3.org/2000/svg" viewBox="0 0 1200 630">
  <defs>
    <linearGradient id="bg" x1="0" y1="0" x2="1" y2="1">
      <stop offset="0%" stop-color="#120f24" />
      <stop offset="45%" stop-color="#1a1742" />
      <stop offset="100%" stop-color="#341546" />
    </linearGradient>
    <linearGradient id="panel" x1="0" y1="0" x2="1" y2="1">
      <stop offset="0%" stop-color="rgba(255,255,255,0.16)" />
      <stop offset="100%" stop-color="rgba(255,255,255,0.04)" />
    </linearGradient>
  </defs>
  <rect width="1200" height="630" fill="url(#bg)" />
  <circle cx="960" cy="90" r="220" fill="#f15aee" opacity="0.2" />
  <circle cx="360" cy="540" r="260" fill="#5d8bff" opacity="0.2" />
  <g transform="translate(120 100)">
    <rect width="960" height="430" rx="48" fill="rgba(9,10,24,0.65)" stroke="rgba(255,255,255,0.18)" stroke-width="4" />
    <g transform="translate(70 70)">
      <text x="0" y="0" fill="#9da4ff" font-family="'Segoe UI', system-ui, sans-serif" font-size="24" letter-spacing="0.3em">PROJECTS FROM THE PROJECTS</text>
      <text x="0" y="120" fill="#ffffff" font-family="'Segoe UI', system-ui, sans-serif" font-size="86" font-weight="700" letter-spacing="0.08em">LITERARY DEVIOUSNESS</text>
      <text x="0" y="190" fill="#ffd166" font-family="'Segoe UI', system-ui, sans-serif" font-size="44" letter-spacing="0.04em">Character MVP</text>
      <text x="0" y="260" fill="#d6d3ff" font-family="'Segoe UI', system-ui, sans-serif" font-size="38">Draft → Submit → Get Feedback</text>
      <g transform="translate(0 320)">
        <rect width="360" height="70" rx="35" fill="rgba(93,139,255,0.22)" stroke="#5d8bff" stroke-width="2" />
        <text x="180" y="46" fill="#cfd7ff" font-family="'Segoe UI', system-ui, sans-serif" font-size="30" text-anchor="middle" letter-spacing="0.04em">Play Now at</text>
      </g>
      <text x="0" y="420" fill="#9da4ff" font-family="'Segoe UI', system-ui, sans-serif" font-size="28" letter-spacing="0.22em">PROJECTSFROMTHEPROJECTS.COM</text>
    </g>
    <g transform="translate(650 60)">
      <rect width="210" height="210" rx="32" fill="rgba(255,255,255,0.08)" stroke="rgba(255,255,255,0.2)" stroke-width="2" />
      <path d="M60 160c20-48 44-72 72-72 18 0 32 8 44 24" stroke="#7cffc4" stroke-width="8" fill="none" stroke-linecap="round" />
      <circle cx="82" cy="160" r="16" fill="#7cffc4" />
      <circle cx="146" cy="160" r="16" fill="#7cffc4" />
      <path d="M92 86l26-34 26 34" fill="none" stroke="#f15aee" stroke-width="8" stroke-linecap="round" stroke-linejoin="round" />
      <text x="105" y="70" text-anchor="middle" fill="#f6f6ff" font-family="'Segoe UI', system-ui, sans-serif" font-size="24" letter-spacing="0.1em">LD</text>
    </g>
  </g>
</svg>
